<svg width="40" height="40" viewBox="0 0 40 40" fill="none" xmlns="http://www.w3.org/2000/svg">
<path d="M30.6663 18.557C30.6663 14.8258 26.7076 9.77783 19.8897 9.77783C13.0718 9.77783 9.33301 15.4843 9.33301 18.557C9.33301 21.6297 10.4327 27.5556 19.8897 27.5556C29.3468 27.5556 30.6663 22.2881 30.6663 18.557Z" fill="url(#paint0_radial_184_928)"/>
<path d="M19.8897 9.52783C19.8897 9.6945 19.8897 9.86117 19.8897 10.0278C20.9106 10.0555 21.9187 10.1977 22.891 10.4669C26.6633 11.458 30.0383 14.7819 30.1071 18.557C30.1068 21.0783 29.2806 23.6161 27.291 25.0221C25.33 26.4551 22.7062 26.8519 20.1701 26.8873C20.0775 26.8884 19.9841 26.889 19.8897 26.889C14.7766 27.2443 9.55482 23.9637 9.88829 18.557C10.1102 14.9636 13.271 11.605 16.9054 10.51C17.8669 10.2131 18.871 10.0554 19.8897 10.0278C19.8897 9.86117 19.8897 9.6945 19.8897 9.52783C18.8286 9.49978 17.7633 9.61034 16.7271 9.87626C12.7984 10.9116 9.22073 14.1381 8.77773 18.557C8.70509 21.2652 9.67199 24.2847 12.0122 26.0299C14.312 27.7821 17.197 28.212 19.8897 28.2222C19.9891 28.2223 20.0877 28.2217 20.1855 28.2206C22.8577 28.1752 25.7333 27.7775 28.058 26.0464C30.4356 24.3233 31.3126 21.2306 31.2256 18.557C30.9721 14.0051 27.0825 10.7109 23.0508 9.82826C22.0102 9.59356 20.9482 9.49997 19.8897 9.52783ZM19.8897 10.0278V9.52783V10.0278Z" fill="url(#paint1_linear_184_928)"/>
<ellipse cx="1.2549" cy="1.36702" rx="1.2549" ry="1.36702" transform="matrix(-0.965926 -0.258819 -0.258819 0.965926 18.3904 16.5871)" fill="url(#paint2_radial_184_928)"/>
<path d="M17.085 10.8758C16.7712 10.0392 15.8928 8.11505 14.8889 7.11113" stroke="url(#paint3_linear_184_928)" stroke-width="2.22222" stroke-linecap="round"/>
<ellipse cx="23.1752" cy="17.5831" rx="1.2549" ry="1.36733" transform="rotate(-15 23.1752 17.5831)" fill="url(#paint4_radial_184_928)"/>
<path d="M22.9139 10.8758C23.2276 10.0392 24.106 8.11505 25.1099 7.11113" stroke="url(#paint5_linear_184_928)" stroke-width="2.22222" stroke-linecap="round"/>
<path d="M14.478 26.6406C13.9068 24.7368 12.8483 23.7517 12.2558 23.5295C9.58908 22.1072 8.77427 25.3072 8.7002 27.085C9.07057 27.2332 10.8252 27.1613 11.8113 28.6405C12.2558 29.3072 13.0422 30.6166 14.0335 30.4183C15.0249 30.22 15.1446 28.8628 14.478 26.6406Z" fill="url(#paint6_radial_184_928)"/>
<path d="M12.2558 23.5295C12.5647 23.7004 12.8011 23.9612 13.0094 24.23C13.5738 24.9802 13.8993 25.8649 14.0898 26.757C14.2317 27.4286 14.3452 28.1054 14.344 28.7338C14.3427 29.0432 14.304 29.3461 14.2164 29.5439C14.1168 29.7475 14.0641 29.7675 13.9094 29.7978C13.6583 29.8802 13.1161 29.3967 12.7158 28.7928C12.6007 28.6287 12.4893 28.4579 12.3639 28.2721C11.5952 26.9955 9.77582 26.593 8.90752 26.5667L9.25794 27.1083C9.29004 25.6056 9.48543 23.3809 11.2491 23.3158C11.5822 23.3173 11.9257 23.4038 12.2558 23.5295C11.967 23.326 11.6468 23.1517 11.2805 23.0644C10.3312 22.776 9.32297 23.5668 8.91527 24.3887C8.45728 25.2252 8.23374 26.1325 8.14245 27.0618L8.14645 27.4849L8.49287 27.6033C9.94601 27.9166 10.7056 28.1764 11.2587 29.009C11.3709 29.1808 11.492 29.3699 11.6237 29.5577C11.8679 29.9031 12.1398 30.256 12.5256 30.5725C12.8918 30.8795 13.5116 31.1893 14.1576 31.0389C14.707 30.9527 15.2213 30.4088 15.3384 29.9465C15.4847 29.4784 15.4706 29.0645 15.434 28.6745C15.3482 27.8965 15.1243 27.2015 14.8661 26.5241C14.5037 25.5842 13.9577 24.6955 13.1915 24.0539C12.912 23.8254 12.6006 23.618 12.2558 23.5295ZM12.2558 23.5295" fill="url(#paint7_linear_184_928)"/>
<path d="M9.58913 19.9737C11.3669 20.6848 12.1076 22.6404 12.2558 23.5293C12.0337 23.5293 11.367 23.5293 10.7003 24.1959C9.91462 24.9816 9.58908 26.4182 9.81143 27.7515C10.1061 29.5187 10.9225 30.196 11.5892 31.3071C12.0337 32.0478 11.367 33.0848 10.0337 33.0848C8.6282 33.0848 5.13223 32.5631 3.14452 29.0848C1.36664 25.9737 2.47784 22.8627 3.81122 21.5293C5.1446 20.1959 7.36691 19.0848 9.58913 19.9737Z" fill="url(#paint8_radial_184_928)"/>
<path d="M12.2558 23.5293C12.2558 23.5293 12.2558 23.5293 12.2558 23.5293C12.1809 22.8663 11.9618 22.2186 11.641 21.6177C11.2178 20.8283 10.5599 20.1125 9.69076 19.7196C7.59115 18.7196 5.04058 19.6105 3.43513 21.1532C1.2752 23.3168 1.05535 26.8687 2.56673 29.415C2.71732 29.68 2.87861 29.9335 3.05521 30.181C4.62093 32.4266 7.35317 33.6938 10.0337 33.657C10.6139 33.646 11.2504 33.4648 11.7216 32.9957C12.1969 32.5581 12.4244 31.6761 12.0059 31.057C11.1817 29.8683 10.358 28.997 10.126 27.6991C9.89807 26.6266 9.98602 25.3982 10.6299 24.4629C10.6764 24.3979 10.7263 24.3347 10.7791 24.2747C11.1428 23.8533 11.6699 23.5524 12.2558 23.5293C12.2558 23.5293 12.2558 23.5293 12.2558 23.5293C11.674 23.472 11.0677 23.7106 10.6216 24.1172C10.5559 24.1756 10.493 24.2379 10.4335 24.3029C9.60523 25.2449 9.35873 26.566 9.49688 27.804C9.58986 29.2295 10.5554 30.5166 11.1725 31.5571C11.4242 31.9814 10.7822 32.5776 10.0337 32.5127C7.72474 32.4202 5.44888 31.2884 4.14042 29.4063C3.99074 29.1966 3.85271 28.9811 3.72231 28.7546C2.44938 26.6559 2.58082 23.7266 4.18732 21.9054C5.50793 20.4919 7.57072 19.5527 9.48749 20.2278C10.2609 20.484 10.9329 21.0495 11.4255 21.751C11.7982 22.2835 12.0937 22.8839 12.2558 23.5293ZM12.2558 23.5293" fill="url(#paint9_linear_184_928)"/>
<path d="M25.524 26.6406C26.0951 24.7368 27.1536 23.7517 27.7462 23.5295C30.4129 22.1072 31.2277 25.3072 31.3018 27.085C30.9314 27.2332 29.1768 27.1613 28.1906 28.6405C27.7462 29.3072 26.9598 30.6166 25.9684 30.4183C24.9771 30.22 24.8573 28.8628 25.524 26.6406Z" fill="url(#paint10_radial_184_928)"/>
<path d="M27.7462 23.5295C27.4373 23.7004 27.2008 23.9612 26.9926 24.23C26.4282 24.9802 26.1027 25.8649 25.9121 26.757C25.7702 27.4286 25.6568 28.1054 25.658 28.7338C25.6593 29.0432 25.698 29.3461 25.7855 29.5439C25.8851 29.7475 25.9379 29.7675 26.0925 29.7978C26.3437 29.8802 26.8858 29.3967 27.2861 28.7928C27.4013 28.6287 27.5127 28.4579 27.638 28.2721C28.4067 26.9955 30.2261 26.593 31.0944 26.5667L30.744 27.1083C30.7119 25.6056 30.5165 23.3809 28.7529 23.3158C28.4198 23.3173 28.0763 23.4038 27.7462 23.5295C28.035 23.326 28.3552 23.1517 28.7214 23.0644C29.6708 22.776 30.679 23.5668 31.0867 24.3887C31.5447 25.2252 31.7682 26.1325 31.8595 27.0618L31.8555 27.4849L31.5091 27.6033C30.0559 27.9166 29.2963 28.1764 28.7433 29.009C28.631 29.1808 28.5099 29.3699 28.3782 29.5577C28.1341 29.9031 27.8621 30.256 27.4764 30.5725C27.1102 30.8795 26.4903 31.1893 25.8443 31.0389C25.2949 30.9527 24.7807 30.4088 24.6635 29.9465C24.5173 29.4784 24.5314 29.0645 24.5679 28.6745C24.6538 27.8965 24.8777 27.2015 25.1358 26.5241C25.4983 25.5842 26.0443 24.6955 26.8105 24.0539C27.0899 23.8254 27.4014 23.618 27.7462 23.5295ZM27.7462 23.5295" fill="url(#paint11_linear_184_928)"/>
<path d="M30.4136 19.9737C28.6358 20.6848 27.8951 22.6404 27.7469 23.5293C27.9691 23.5293 28.6357 23.5293 29.3024 24.1959C30.0881 24.9816 30.4136 26.4182 30.1913 27.7515C29.8966 29.5187 29.0802 30.196 28.4135 31.3071C27.9691 32.0478 28.6357 33.0848 29.9691 33.0848C31.3745 33.0848 34.8705 32.5631 36.8582 29.0848C38.6361 25.9737 37.5249 22.8627 36.1915 21.5293C34.8581 20.1959 32.6358 19.0848 30.4136 19.9737Z" fill="url(#paint12_radial_184_928)"/>
<path d="M27.7469 23.5293C27.7469 23.5293 27.7469 23.5293 27.7469 23.5293C27.8218 22.8663 28.041 22.2186 28.3617 21.6177C28.7849 20.8283 29.4429 20.1125 30.312 19.7196C32.4116 18.7196 34.9622 19.6105 36.5676 21.1532C38.7275 23.3168 38.9474 26.8687 37.436 29.415C37.2854 29.68 37.1241 29.9335 36.9475 30.181C35.3818 32.4266 32.6496 33.6938 29.9691 33.657C29.3889 33.646 28.7523 33.4648 28.2811 32.9957C27.8058 32.5581 27.5783 31.6761 27.9968 31.057C28.821 29.8683 29.6448 28.997 29.8767 27.6991C30.1047 26.6266 30.0167 25.3982 29.3728 24.4629C29.3264 24.3979 29.2765 24.3347 29.2237 24.2747C28.86 23.8533 28.3328 23.5524 27.7469 23.5293C27.7469 23.5293 27.7469 23.5293 27.7469 23.5293C28.3287 23.472 28.9351 23.7106 29.3812 24.1172C29.4468 24.1756 29.5097 24.2379 29.5692 24.3029C30.3975 25.2449 30.644 26.566 30.5059 27.804C30.4129 29.2295 29.4473 30.5166 28.8302 31.5571C28.5786 31.9814 29.2205 32.5776 29.9691 32.5127C32.278 32.4202 34.5538 31.2884 35.8623 29.4063C36.012 29.1966 36.15 28.9811 36.2804 28.7546C37.5534 26.6559 37.4219 23.7266 35.8154 21.9054C34.4948 20.4919 32.432 19.5527 30.5152 20.2278C29.7419 20.484 29.0698 21.0495 28.5772 21.751C28.2046 22.2835 27.909 22.8839 27.7469 23.5293ZM27.7469 23.5293" fill="url(#paint13_linear_184_928)"/>
<defs>
<radialGradient id="paint0_radial_184_928" cx="0" cy="0" r="1" gradientUnits="userSpaceOnUse" gradientTransform="translate(19.9997 15.4921) rotate(90) scale(12.0635 19.8661)">
<stop stop-color="white" style="stop-color:white;stop-opacity:1;"/>
<stop offset="1" stop-color="#ACC8F8" style="stop-color:#ACC8F8;stop-color:color(display-p3 0.6745 0.7843 0.9725);stop-opacity:1;"/>
</radialGradient>
<linearGradient id="paint1_linear_184_928" x1="19.9997" y1="9.77783" x2="19.9997" y2="27.5556" gradientUnits="userSpaceOnUse">
<stop stop-color="#1B52E8" stop-opacity="0.2" style="stop-color:#1B52E8;stop-color:color(display-p3 0.1059 0.3216 0.9098);stop-opacity:0.2;"/>
<stop offset="1" stop-color="#1B52E8" style="stop-color:#1B52E8;stop-color:color(display-p3 0.1059 0.3216 0.9098);stop-opacity:1;"/>
</linearGradient>
<radialGradient id="paint2_radial_184_928" cx="0" cy="0" r="1" gradientTransform="matrix(0.140523 1.9659 -1.80467 0.0979697 1.11438 0.768129)" gradientUnits="userSpaceOnUse">
<stop stop-color="#3D4A8E" style="stop-color:#3D4A8E;stop-color:color(display-p3 0.2392 0.2902 0.5569);stop-opacity:1;"/>
<stop offset="1" stop-color="#111528" style="stop-color:#111528;stop-color:color(display-p3 0.0674 0.0817 0.1569);stop-opacity:1;"/>
</radialGradient>
<linearGradient id="paint3_linear_184_928" x1="15.2415" y1="7.01678" x2="18.3016" y2="8.9461" gradientUnits="userSpaceOnUse">
<stop stop-color="#1B52E8" style="stop-color:#1B52E8;stop-color:color(display-p3 0.1059 0.3216 0.9098);stop-opacity:1;"/>
<stop offset="1" stop-color="#BFD4F8" style="stop-color:#BFD4F8;stop-color:color(display-p3 0.7490 0.8314 0.9725);stop-opacity:1;"/>
</linearGradient>
<radialGradient id="paint4_radial_184_928" cx="0" cy="0" r="1" gradientTransform="matrix(0.140523 1.96636 -1.80467 0.0979925 23.0347 16.984)" gradientUnits="userSpaceOnUse">
<stop stop-color="#3D4A8E" style="stop-color:#3D4A8E;stop-color:color(display-p3 0.2392 0.2902 0.5569);stop-opacity:1;"/>
<stop offset="1" stop-color="#111528" style="stop-color:#111528;stop-color:color(display-p3 0.0674 0.0817 0.1569);stop-opacity:1;"/>
</radialGradient>
<linearGradient id="paint5_linear_184_928" x1="24.7573" y1="7.01678" x2="21.6972" y2="8.9461" gradientUnits="userSpaceOnUse">
<stop stop-color="#1B52E8" style="stop-color:#1B52E8;stop-color:color(display-p3 0.1059 0.3216 0.9098);stop-opacity:1;"/>
<stop offset="1" stop-color="#BFD4F8" style="stop-color:#BFD4F8;stop-color:color(display-p3 0.7490 0.8314 0.9725);stop-opacity:1;"/>
</linearGradient>
<radialGradient id="paint6_radial_184_928" cx="0" cy="0" r="1" gradientUnits="userSpaceOnUse" gradientTransform="translate(11.7002 25.7175) rotate(90) scale(5.36748 5.58733)">
<stop stop-color="white" style="stop-color:white;stop-opacity:1;"/>
<stop offset="1" stop-color="#ACC8F8" style="stop-color:#ACC8F8;stop-color:color(display-p3 0.6745 0.7843 0.9725);stop-opacity:1;"/>
</radialGradient>
<linearGradient id="paint7_linear_184_928" x1="11.7002" y1="23.175" x2="11.7002" y2="31.085" gradientUnits="userSpaceOnUse">
<stop stop-color="#1B52E8" stop-opacity="0.2" style="stop-color:#1B52E8;stop-color:color(display-p3 0.1059 0.3216 0.9098);stop-opacity:0.2;"/>
<stop offset="1" stop-color="#1B52E8" style="stop-color:#1B52E8;stop-color:color(display-p3 0.1059 0.3216 0.9098);stop-opacity:1;"/>
</linearGradient>
<radialGradient id="paint8_radial_184_928" cx="0" cy="0" r="1" gradientUnits="userSpaceOnUse" gradientTransform="translate(7.23913 23.9713) rotate(90) scale(9.11358 9.34326)">
<stop stop-color="white" style="stop-color:white;stop-opacity:1;"/>
<stop offset="1" stop-color="#ACC8F8" style="stop-color:#ACC8F8;stop-color:color(display-p3 0.6745 0.7843 0.9725);stop-opacity:1;"/>
</radialGradient>
<linearGradient id="paint9_linear_184_928" x1="7.23913" y1="19.6543" x2="7.23913" y2="33.0848" gradientUnits="userSpaceOnUse">
<stop stop-color="#1B52E8" stop-opacity="0.2" style="stop-color:#1B52E8;stop-color:color(display-p3 0.1059 0.3216 0.9098);stop-opacity:0.2;"/>
<stop offset="1" stop-color="#1B52E8" style="stop-color:#1B52E8;stop-color:color(display-p3 0.1059 0.3216 0.9098);stop-opacity:1;"/>
</linearGradient>
<radialGradient id="paint10_radial_184_928" cx="0" cy="0" r="1" gradientUnits="userSpaceOnUse" gradientTransform="translate(28.3018 25.7175) rotate(90) scale(5.36748 5.58733)">
<stop stop-color="white" style="stop-color:white;stop-opacity:1;"/>
<stop offset="1" stop-color="#ACC8F8" style="stop-color:#ACC8F8;stop-color:color(display-p3 0.6745 0.7843 0.9725);stop-opacity:1;"/>
</radialGradient>
<linearGradient id="paint11_linear_184_928" x1="28.3018" y1="23.175" x2="28.3018" y2="31.085" gradientUnits="userSpaceOnUse">
<stop stop-color="#1B52E8" stop-opacity="0.2" style="stop-color:#1B52E8;stop-color:color(display-p3 0.1059 0.3216 0.9098);stop-opacity:0.2;"/>
<stop offset="1" stop-color="#1B52E8" style="stop-color:#1B52E8;stop-color:color(display-p3 0.1059 0.3216 0.9098);stop-opacity:1;"/>
</linearGradient>
<radialGradient id="paint12_radial_184_928" cx="0" cy="0" r="1" gradientUnits="userSpaceOnUse" gradientTransform="translate(32.7636 23.9713) rotate(90) scale(9.11358 9.34326)">
<stop stop-color="white" style="stop-color:white;stop-opacity:1;"/>
<stop offset="1" stop-color="#ACC8F8" style="stop-color:#ACC8F8;stop-color:color(display-p3 0.6745 0.7843 0.9725);stop-opacity:1;"/>
</radialGradient>
<linearGradient id="paint13_linear_184_928" x1="32.7636" y1="19.6543" x2="32.7636" y2="33.0848" gradientUnits="userSpaceOnUse">
<stop stop-color="#1B52E8" stop-opacity="0.2" style="stop-color:#1B52E8;stop-color:color(display-p3 0.1059 0.3216 0.9098);stop-opacity:0.2;"/>
<stop offset="1" stop-color="#1B52E8" style="stop-color:#1B52E8;stop-color:color(display-p3 0.1059 0.3216 0.9098);stop-opacity:1;"/>
</linearGradient>
</defs>
</svg>
